<svg width="4283" height="5267" xmlns="http://www.w3.org/2000/svg" xmlns:xlink="http://www.w3.org/1999/xlink" overflow="hidden"><defs><clipPath id="clip0"><rect x="-379" y="73" width="4283" height="5267"/></clipPath><clipPath id="clip1"><rect x="-379" y="-254" width="943" height="1233"/></clipPath><clipPath id="clip2"><rect x="563" y="54" width="1110" height="617"/></clipPath><clipPath id="clip3"><rect x="1672" y="54" width="2228" height="617"/></clipPath><clipPath id="clip4"><rect x="-379" y="53" width="943" height="1079"/></clipPath><clipPath id="clip5"><rect x="563" y="284" width="1110" height="617"/></clipPath><clipPath id="clip6"><rect x="1672" y="284" width="2228" height="617"/></clipPath><clipPath id="clip7"><rect x="-379" y="338" width="943" height="925"/></clipPath><clipPath id="clip8"><rect x="563" y="492" width="1110" height="617"/></clipPath><clipPath id="clip9"><rect x="1672" y="492" width="2228" height="617"/></clipPath><clipPath id="clip10"><rect x="-379" y="601" width="943" height="771"/></clipPath><clipPath id="clip11"><rect x="563" y="678" width="1110" height="617"/></clipPath><clipPath id="clip12"><rect x="1672" y="678" width="2228" height="617"/></clipPath><clipPath id="clip13"><rect x="-379" y="809" width="943" height="694"/></clipPath><clipPath id="clip14"><rect x="563" y="848" width="1110" height="617"/></clipPath><clipPath id="clip15"><rect x="1672" y="848" width="2228" height="617"/></clipPath><clipPath id="clip16"><rect x="-379" y="973" width="943" height="694"/></clipPath><clipPath id="clip17"><rect x="563" y="1012" width="1110" height="617"/></clipPath><clipPath id="clip18"><rect x="1672" y="1012" width="2228" height="617"/></clipPath><clipPath id="clip19"><rect x="-379" y="1137" width="943" height="694"/></clipPath><clipPath id="clip20"><rect x="563" y="1176" width="1110" height="617"/></clipPath><clipPath id="clip21"><rect x="1672" y="1176" width="2228" height="617"/></clipPath><clipPath id="clip22"><rect x="-379" y="1301" width="943" height="694"/></clipPath><clipPath id="clip23"><rect x="563" y="1340" width="1110" height="617"/></clipPath><clipPath id="clip24"><rect x="1672" y="1340" width="2228" height="617"/></clipPath><clipPath id="clip25"><rect x="-379" y="1548" width="943" height="694"/></clipPath><clipPath id="clip26"><rect x="563" y="970" width="1110" height="1849"/></clipPath><clipPath id="clip27"><rect x="563" y="970" width="1110" height="1849"/></clipPath><clipPath id="clip28"><rect x="563" y="970" width="1110" height="1849"/></clipPath><clipPath id="clip29"><rect x="1672" y="970" width="2228" height="1849"/></clipPath><clipPath id="clip30"><rect x="1672" y="970" width="2228" height="1849"/></clipPath><clipPath id="clip31"><rect x="1672" y="970" width="2228" height="1849"/></clipPath><clipPath id="clip32"><rect x="-379" y="1794" width="943" height="694"/></clipPath><clipPath id="clip33"><rect x="563" y="1833" width="1110" height="617"/></clipPath><clipPath id="clip34"><rect x="1672" y="1833" width="2228" height="617"/></clipPath><clipPath id="clip35"><rect x="-379" y="2041" width="943" height="694"/></clipPath><clipPath id="clip36"><rect x="563" y="1463" width="1110" height="1849"/></clipPath><clipPath id="clip37"><rect x="563" y="1463" width="1110" height="1849"/></clipPath><clipPath id="clip38"><rect x="563" y="1463" width="1110" height="1849"/></clipPath><clipPath id="clip39"><rect x="1672" y="1463" width="2228" height="1849"/></clipPath><clipPath id="clip40"><rect x="1672" y="1463" width="2228" height="1849"/></clipPath><clipPath id="clip41"><rect x="1672" y="1463" width="2228" height="1849"/></clipPath><clipPath id="clip42"><rect x="-379" y="2287" width="943" height="694"/></clipPath><clipPath id="clip43"><rect x="563" y="2326" width="1110" height="617"/></clipPath><clipPath id="clip44"><rect x="1672" y="2326" width="2228" height="617"/></clipPath><clipPath id="clip45"><rect x="-379" y="2451" width="943" height="694"/></clipPath><clipPath id="clip46"><rect x="563" y="2489" width="1110" height="617"/></clipPath><clipPath id="clip47"><rect x="1672" y="2489" width="2228" height="617"/></clipPath><clipPath id="clip48"><rect x="-379" y="2615" width="943" height="694"/></clipPath><clipPath id="clip49"><rect x="563" y="2653" width="1110" height="617"/></clipPath><clipPath id="clip50"><rect x="1672" y="2653" width="2228" height="617"/></clipPath><clipPath id="clip51"><rect x="563" y="3032" width="1110" height="617"/></clipPath><clipPath id="clip52"><rect x="1672" y="1492" width="2228" height="3697"/></clipPath><clipPath id="clip53"><rect x="1672" y="1492" width="2228" height="3697"/></clipPath><clipPath id="clip54"><rect x="-379" y="3152" width="943" height="1387"/></clipPath><clipPath id="clip55"><rect x="-379" y="3152" width="943" height="1387"/></clipPath><clipPath id="clip56"><rect x="563" y="3229" width="1110" height="1233"/></clipPath><clipPath id="clip57"><rect x="563" y="3229" width="1110" height="1233"/></clipPath><clipPath id="clip58"><rect x="1672" y="2613" width="2228" height="2465"/></clipPath><clipPath id="clip59"><rect x="1672" y="2613" width="2228" height="2465"/></clipPath><clipPath id="clip60"><rect x="-379" y="3569" width="943" height="1387"/></clipPath><clipPath id="clip61"><rect x="-379" y="3569" width="943" height="1387"/></clipPath><clipPath id="clip62"><rect x="563" y="3646" width="1110" height="1233"/></clipPath><clipPath id="clip63"><rect x="563" y="3646" width="1110" height="1233"/></clipPath><clipPath id="clip64"><rect x="1672" y="3030" width="2228" height="2465"/></clipPath><clipPath id="clip65"><rect x="1672" y="3030" width="2228" height="2465"/></clipPath><clipPath id="clip66"><rect x="563" y="3975" width="1110" height="1849"/></clipPath><clipPath id="clip67"><rect x="563" y="3975" width="1110" height="1849"/></clipPath><clipPath id="clip68"><rect x="563" y="3975" width="1110" height="1849"/></clipPath><clipPath id="clip69"><rect x="1672" y="2127" width="2228" height="5545"/></clipPath><clipPath id="clip70"><rect x="1672" y="2127" width="2228" height="5545"/></clipPath><clipPath id="clip71"><rect x="-316" y="4472" width="409" height="694"/></clipPath><clipPath id="clip72"><rect x="-316" y="4606" width="409" height="694"/></clipPath></defs><g clip-path="url(#clip0)" transform="translate(379 -73)"><path d="M-378.058 78.528 563.884 78.528 563.884 242.489-378.058 242.489Z" fill-rule="evenodd"/><path d="M563.884 78.528 1672.43 78.528 1672.43 242.489 563.884 242.489Z" fill-rule="evenodd"/><path d="M1672.43 78.528 3899.13 78.528 3899.13 242.489 1672.43 242.489Z" fill-rule="evenodd"/><path d="M-378.058 242.489 563.884 242.489 563.884 483.449-378.058 483.449Z" fill="#E7E7E7" fill-rule="evenodd"/><path d="M563.884 242.489 1672.43 242.489 1672.43 483.449 563.884 483.449Z" fill="#E7E7E7" fill-rule="evenodd"/><path d="M1672.43 242.489 3899.13 242.489 3899.13 483.449 1672.43 483.449Z" fill="#E7E7E7" fill-rule="evenodd"/><path d="M-378.058 483.449 563.884 483.449 563.884 702.41-378.058 702.41Z" fill="#FFFFFF" fill-rule="evenodd"/><path d="M563.884 483.449 1672.43 483.449 1672.43 702.41 563.884 702.41Z" fill="#FFFFFF" fill-rule="evenodd"/><path d="M1672.43 483.449 3899.13 483.449 3899.13 702.41 1672.43 702.41Z" fill="#FFFFFF" fill-rule="evenodd"/><path d="M-378.058 702.41 563.884 702.41 563.884 899.371-378.058 899.371Z" fill="#E7E7E7" fill-rule="evenodd"/><path d="M563.884 702.41 1672.43 702.41 1672.43 899.371 563.884 899.371Z" fill="#E7E7E7" fill-rule="evenodd"/><path d="M1672.43 702.41 3899.13 702.41 3899.13 899.371 1672.43 899.371Z" fill="#E7E7E7" fill-rule="evenodd"/><path d="M-378.058 899.371 563.884 899.371 563.884 1074.33-378.058 1074.33Z" fill="#FFFFFF" fill-rule="evenodd"/><path d="M563.884 899.371 1672.43 899.371 1672.43 1074.33 563.884 1074.33Z" fill="#FFFFFF" fill-rule="evenodd"/><path d="M1672.43 899.371 3899.13 899.371 3899.13 1074.33 1672.43 1074.33Z" fill="#FFFFFF" fill-rule="evenodd"/><path d="M-378.058 1074.33 563.884 1074.33 563.884 1238.29-378.058 1238.29Z" fill="#E7E7E7" fill-rule="evenodd"/><path d="M563.884 1074.33 1672.43 1074.33 1672.43 1238.29 563.884 1238.29Z" fill="#E7E7E7" fill-rule="evenodd"/><path d="M1672.43 1074.33 3899.13 1074.33 3899.13 1238.29 1672.43 1238.29Z" fill="#E7E7E7" fill-rule="evenodd"/><path d="M-378.058 1238.29 563.884 1238.29 563.884 1402.25-378.058 1402.25Z" fill="#FFFFFF" fill-rule="evenodd"/><path d="M563.884 1238.29 1672.43 1238.29 1672.43 1402.25 563.884 1402.25Z" fill="#FFFFFF" fill-rule="evenodd"/><path d="M1672.43 1238.29 3899.13 1238.29 3899.13 1402.25 1672.43 1402.25Z" fill="#FFFFFF" fill-rule="evenodd"/><path d="M-378.058 1402.25 563.884 1402.25 563.884 1566.21-378.058 1566.21Z" fill="#E7E7E7" fill-rule="evenodd"/><path d="M563.884 1402.25 1672.43 1402.25 1672.43 1566.21 563.884 1566.21Z" fill="#E7E7E7" fill-rule="evenodd"/><path d="M1672.43 1402.25 3899.13 1402.25 3899.13 1566.21 1672.43 1566.21Z" fill="#E7E7E7" fill-rule="evenodd"/><path d="M-378.058 1566.21 563.884 1566.21 563.884 1730.17-378.058 1730.17Z" fill="#FFFFFF" fill-rule="evenodd"/><path d="M563.884 1566.21 1672.43 1566.21 1672.43 1730.17 563.884 1730.17Z" fill="#FFFFFF" fill-rule="evenodd"/><path d="M1672.43 1566.21 3899.13 1566.21 3899.13 1730.17 1672.43 1730.17Z" fill="#FFFFFF" fill-rule="evenodd"/><path d="M-378.058 1730.17 563.884 1730.17 563.884 2059.13-378.058 2059.13Z" fill="#E7E7E7" fill-rule="evenodd"/><path d="M563.884 1730.17 1672.43 1730.17 1672.43 2059.13 563.884 2059.13Z" fill="#E7E7E7" fill-rule="evenodd"/><path d="M1672.43 1730.17 3899.13 1730.17 3899.13 2059.13 1672.43 2059.13Z" fill="#E7E7E7" fill-rule="evenodd"/><path d="M-378.058 2059.13 563.884 2059.13 563.884 2223.09-378.058 2223.09Z" fill="#FFFFFF" fill-rule="evenodd"/><path d="M563.884 2059.13 1672.43 2059.13 1672.43 2223.09 563.884 2223.09Z" fill="#FFFFFF" fill-rule="evenodd"/><path d="M1672.43 2059.13 3899.13 2059.13 3899.13 2223.09 1672.43 2223.09Z" fill="#FFFFFF" fill-rule="evenodd"/><path d="M-378.058 2223.09 563.884 2223.09 563.884 2552.06-378.058 2552.06Z" fill="#E7E7E7" fill-rule="evenodd"/><path d="M563.884 2223.09 1672.43 2223.09 1672.43 2552.06 563.884 2552.06Z" fill="#E7E7E7" fill-rule="evenodd"/><path d="M1672.43 2223.09 3899.13 2223.09 3899.13 2552.06 1672.43 2552.06Z" fill="#E7E7E7" fill-rule="evenodd"/><path d="M-378.058 2552.06 563.884 2552.06 563.884 2716.02-378.058 2716.02Z" fill="#FFFFFF" fill-rule="evenodd"/><path d="M563.884 2552.06 1672.43 2552.06 1672.43 2716.02 563.884 2716.02Z" fill="#FFFFFF" fill-rule="evenodd"/><path d="M1672.43 2552.06 3899.13 2552.06 3899.13 2716.02 1672.43 2716.02Z" fill="#FFFFFF" fill-rule="evenodd"/><path d="M-378.058 2716.02 563.884 2716.02 563.884 2879.98-378.058 2879.98Z" fill="#E7E7E7" fill-rule="evenodd"/><path d="M563.884 2716.02 1672.43 2716.02 1672.43 2879.98 563.884 2879.98Z" fill="#E7E7E7" fill-rule="evenodd"/><path d="M1672.43 2716.02 3899.13 2716.02 3899.13 2879.98 1672.43 2879.98Z" fill="#E7E7E7" fill-rule="evenodd"/><path d="M-378.058 2879.98 563.884 2879.98 563.884 3043.94-378.058 3043.94Z" fill="#FFFFFF" fill-rule="evenodd"/><path d="M563.884 2879.98 1672.43 2879.98 1672.43 3043.94 563.884 3043.94Z" fill="#FFFFFF" fill-rule="evenodd"/><path d="M1672.43 2879.98 3899.13 2879.98 3899.13 3043.94 1672.43 3043.94Z" fill="#FFFFFF" fill-rule="evenodd"/><path d="M-378.058 3043.94 563.884 3043.94 563.884 3636.9-378.058 3636.9Z" fill="#E7E7E7" fill-rule="evenodd"/><path d="M563.884 3043.94 1672.43 3043.94 1672.43 3636.9 563.884 3636.9Z" fill="#E7E7E7" fill-rule="evenodd"/><path d="M1672.43 3043.94 3899.13 3043.94 3899.13 3636.9 1672.43 3636.9Z" fill="#E7E7E7" fill-rule="evenodd"/><path d="M-378.058 3636.9 563.884 3636.9 563.884 4053.86-378.058 4053.86Z" fill="#FFFFFF" fill-rule="evenodd"/><path d="M563.884 3636.9 1672.43 3636.9 1672.43 4053.86 563.884 4053.86Z" fill="#FFFFFF" fill-rule="evenodd"/><path d="M1672.43 3636.9 3899.13 3636.9 3899.13 4053.86 1672.43 4053.86Z" fill="#FFFFFF" fill-rule="evenodd"/><path d="M-378.058 4053.86 563.884 4053.86 563.884 4470.82-378.058 4470.82Z" fill="#E7E7E7" fill-rule="evenodd"/><path d="M563.884 4053.86 1672.43 4053.86 1672.43 4470.82 563.884 4470.82Z" fill="#E7E7E7" fill-rule="evenodd"/><path d="M1672.43 4053.86 3899.13 4053.86 3899.13 4470.82 1672.43 4470.82Z" fill="#E7E7E7" fill-rule="evenodd"/><path d="M-378.058 4470.82 563.884 4470.82 563.884 5327.78-378.058 5327.78Z" fill="#FFFFFF" fill-rule="evenodd"/><path d="M563.884 4470.82 1672.43 4470.82 1672.43 5327.78 563.884 5327.78Z" fill="#FFFFFF" fill-rule="evenodd"/><path d="M1672.43 4470.82 3899.13 4470.82 3899.13 5327.78 1672.43 5327.78Z" fill="#FFFFFF" fill-rule="evenodd"/><path d="M-378.058 242.489 3899.13 242.489" stroke="#000000" stroke-width="9.16667" stroke-linejoin="round" stroke-miterlimit="10" fill="none" fill-rule="evenodd"/><path d="M-378.058 78.528 3899.13 78.528" stroke="#000000" stroke-width="9.16667" stroke-linejoin="round" stroke-miterlimit="10" fill="none" fill-rule="evenodd"/><path d="M-378.058 5327.78 3899.13 5327.78" stroke="#000000" stroke-width="9.16667" stroke-linejoin="round" stroke-miterlimit="10" fill="none" fill-rule="evenodd"/><text fill="#FFFFFF" font-family="SimHei,SimHei_MSFontService,sans-serif" font-weight="700" font-size="83" transform="matrix(1 0 0 1 -73.2332 192)">渲染效果<tspan font-family="Arial,Arial_MSFontService,sans-serif" font-size="83" x="987.43" y="-1">Markdown</tspan><tspan font-family="Arial,Arial_MSFontService,sans-serif" font-size="83" x="2751.3" y="-1">Latex</tspan></text><g clip-path="url(#clip1)"><text font-family="Times New Roman,Times New Roman_MSFontService,sans-serif" font-weight="700" font-size="147" transform="matrix(1 0 0 1 -345.058 417)">section1</text></g><g clip-path="url(#clip2)"><text font-family="Monaco,Monaco_MSFontService,sans-serif" font-weight="400" font-size="73" transform="matrix(1 0 0 1 596.883 390)">## section1</text></g><g clip-path="url(#clip3)"><text font-family="Monaco,Monaco_MSFontService,sans-serif" font-weight="400" font-size="73" transform="matrix(1 0 0 1 1705.43 390)">\</text></g><text font-family="Monaco,Monaco_MSFontService,sans-serif" font-weight="400" font-size="73" transform="matrix(1 0 0 1 1749.54 390)">section{section1}</text><g clip-path="url(#clip4)"><text font-family="Times New Roman,Times New Roman_MSFontService,sans-serif" font-weight="700" font-size="128" transform="matrix(1 0 0 1 -345.058 640)">section2</text></g><g clip-path="url(#clip5)"><text font-family="Monaco,Monaco_MSFontService,sans-serif" font-weight="400" font-size="73" transform="matrix(1 0 0 1 596.883 620)">### section2</text></g><g clip-path="url(#clip6)"><text font-family="Monaco,Monaco_MSFontService,sans-serif" font-weight="400" font-size="73" transform="matrix(1 0 0 1 1705.43 620)">\</text></g><text font-family="Monaco,Monaco_MSFontService,sans-serif" font-weight="400" font-size="73" transform="matrix(1 0 0 1 1749.54 620)">subsection{section2}</text><g clip-path="url(#clip7)"><text font-family="Times New Roman,Times New Roman_MSFontService,sans-serif" font-weight="700" font-size="110" transform="matrix(1 0 0 1 -345.058 841)">section3</text></g><g clip-path="url(#clip8)"><text font-family="Monaco,Monaco_MSFontService,sans-serif" font-weight="400" font-size="73" transform="matrix(1 0 0 1 596.883 828)">#### section3</text></g><g clip-path="url(#clip9)"><text font-family="Monaco,Monaco_MSFontService,sans-serif" font-weight="400" font-size="73" transform="matrix(1 0 0 1 1705.43 828)">\</text></g><text font-family="Monaco,Monaco_MSFontService,sans-serif" font-weight="400" font-size="73" transform="matrix(1 0 0 1 1749.54 828)">subsubsection{section3}</text><g clip-path="url(#clip10)"><text font-family="Times New Roman,Times New Roman_MSFontService,sans-serif" font-weight="700" font-size="92" transform="matrix(1 0 0 1 -345.058 1021)">section4</text></g><g clip-path="url(#clip11)"><text font-family="Monaco,Monaco_MSFontService,sans-serif" font-weight="400" font-size="73" transform="matrix(1 0 0 1 596.883 1014)">##### section4</text></g><g clip-path="url(#clip12)"><text font-family="Monaco,Monaco_MSFontService,sans-serif" font-weight="400" font-size="73" transform="matrix(1 0 0 1 1705.43 1014)">\</text></g><text font-family="Monaco,Monaco_MSFontService,sans-serif" font-weight="400" font-size="73" transform="matrix(1 0 0 1 1749.54 1014)">paragraph{section4}</text><g clip-path="url(#clip13)"><text font-family="Times New Roman,Times New Roman_MSFontService,sans-serif" font-weight="400" font-size="83" transform="matrix(1 0 0 1 -345.058 1187)">text</text></g><g clip-path="url(#clip14)"><text font-family="Monaco,Monaco_MSFontService,sans-serif" font-weight="400" font-size="73" transform="matrix(1 0 0 1 596.883 1183)">text</text></g><g clip-path="url(#clip15)"><text font-family="Monaco,Monaco_MSFontService,sans-serif" font-weight="400" font-size="73" transform="matrix(1 0 0 1 1705.43 1183)">text</text></g><g clip-path="url(#clip16)"><text font-family="Times New Roman,Times New Roman_MSFontService,sans-serif" font-weight="700" font-size="83" transform="matrix(1 0 0 1 -345.058 1351)">bold</text></g><g clip-path="url(#clip17)"><text font-family="Monaco,Monaco_MSFontService,sans-serif" font-weight="400" font-size="73" transform="matrix(1 0 0 1 596.883 1347)">**bold**</text></g><g clip-path="url(#clip18)"><text font-family="Monaco,Monaco_MSFontService,sans-serif" font-weight="400" font-size="73" transform="matrix(1 0 0 1 1705.43 1347)">\</text></g><text font-family="Monaco,Monaco_MSFontService,sans-serif" font-weight="400" font-size="73" transform="matrix(1 0 0 1 1749.54 1347)">textbf<tspan font-size="73" x="264.688" y="0">{bold}</tspan></text><g clip-path="url(#clip19)"><text font-family="Times New Roman,Times New Roman_MSFontService,sans-serif" font-style="italic" font-weight="400" font-size="83" transform="matrix(1 0 0 1 -345.058 1515)">italics</text></g><g clip-path="url(#clip20)"><text font-family="Monaco,Monaco_MSFontService,sans-serif" font-weight="400" font-size="73" transform="matrix(1 0 0 1 596.883 1511)">*italics*</text></g><g clip-path="url(#clip21)"><text font-family="Monaco,Monaco_MSFontService,sans-serif" font-weight="400" font-size="73" transform="matrix(1 0 0 1 1705.43 1511)">\</text></g><text font-family="Monaco,Monaco_MSFontService,sans-serif" font-weight="400" font-size="73" transform="matrix(1 0 0 1 1749.54 1511)">textit<tspan font-size="73" x="264.688" y="0">{italics}</tspan></text><g clip-path="url(#clip22)"><text font-family="Consolas,Consolas_MSFontService,sans-serif" font-weight="400" font-size="83" transform="matrix(1 0 0 1 -345.058 1677)">code</text></g><g clip-path="url(#clip23)"><text font-family="Monaco,Monaco_MSFontService,sans-serif" font-weight="400" font-size="73" transform="matrix(1 0 0 1 596.883 1675)">`code`</text></g><g clip-path="url(#clip24)"><text font-family="Monaco,Monaco_MSFontService,sans-serif" font-weight="400" font-size="73" transform="matrix(1 0 0 1 1705.43 1675)">\</text></g><text font-family="Monaco,Monaco_MSFontService,sans-serif" font-weight="400" font-size="73" transform="matrix(1 0 0 1 1749.54 1675)">minted{text}|code|</text><g clip-path="url(#clip25)"><text font-family="Consolas,Consolas_MSFontService,sans-serif" font-weight="400" font-size="83" transform="matrix(1 0 0 1 -345.058 1923)">code</text></g><g clip-path="url(#clip26)"><text font-family="Monaco,Monaco_MSFontService,sans-serif" font-weight="400" font-size="73" transform="matrix(1 0 0 1 596.883 1834)">```language</text></g><g clip-path="url(#clip27)"><text font-family="Monaco,Monaco_MSFontService,sans-serif" font-weight="400" font-size="73" transform="matrix(1 0 0 1 596.883 1922)">code</text></g><g clip-path="url(#clip28)"><text font-family="Monaco,Monaco_MSFontService,sans-serif" font-weight="400" font-size="73" transform="matrix(1 0 0 1 596.883 2010)">```</text></g><g clip-path="url(#clip29)"><text font-family="Monaco,Monaco_MSFontService,sans-serif" font-weight="400" font-size="73" transform="matrix(1 0 0 1 1705.43 1834)">\</text></g><text font-family="Monaco,Monaco_MSFontService,sans-serif" font-weight="400" font-size="73" transform="matrix(1 0 0 1 1749.54 1834)">begin{minted}{language}</text><g clip-path="url(#clip30)"><text font-family="Monaco,Monaco_MSFontService,sans-serif" font-weight="400" font-size="73" transform="matrix(1 0 0 1 1705.43 1922)">code</text></g><g clip-path="url(#clip31)"><text font-family="Monaco,Monaco_MSFontService,sans-serif" font-weight="400" font-size="73" transform="matrix(1 0 0 1 1705.43 2010)">\</text></g><text font-family="Monaco,Monaco_MSFontService,sans-serif" font-weight="400" font-size="73" transform="matrix(1 0 0 1 1749.54 2010)">end{minted}</text><g clip-path="url(#clip32)"><text font-family="Latin Modern Math,Latin Modern Math_MSFontService,sans-serif" font-weight="400" font-size="83" transform="matrix(1 0 0 1 -345.058 2145)">equation</text></g><g clip-path="url(#clip33)"><text font-family="Monaco,Monaco_MSFontService,sans-serif" font-weight="400" font-size="73" transform="matrix(1 0 0 1 596.883 2168)">$equation$</text></g><g clip-path="url(#clip34)"><text font-family="Monaco,Monaco_MSFontService,sans-serif" font-weight="400" font-size="73" transform="matrix(1 0 0 1 1705.43 2168)">$equation$</text></g><g clip-path="url(#clip35)"><text font-family="Latin Modern Math,Latin Modern Math_MSFontService,sans-serif" font-weight="400" font-size="83" transform="matrix(1 0 0 1 -345.058 2391)">equation</text></g><g clip-path="url(#clip36)"><text font-family="Monaco,Monaco_MSFontService,sans-serif" font-weight="400" font-size="73" transform="matrix(1 0 0 1 596.883 2327)">$$</text></g><g clip-path="url(#clip37)"><text font-family="Monaco,Monaco_MSFontService,sans-serif" font-weight="400" font-size="73" transform="matrix(1 0 0 1 596.883 2415)">equation</text></g><g clip-path="url(#clip38)"><text font-family="Monaco,Monaco_MSFontService,sans-serif" font-weight="400" font-size="73" transform="matrix(1 0 0 1 596.883 2503)">$$</text></g><g clip-path="url(#clip39)"><text font-family="Monaco,Monaco_MSFontService,sans-serif" font-weight="400" font-size="73" transform="matrix(1 0 0 1 1705.43 2327)">\</text></g><text font-family="Monaco,Monaco_MSFontService,sans-serif" font-weight="400" font-size="73" transform="matrix(1 0 0 1 1749.54 2327)">begin{equation}</text><g clip-path="url(#clip40)"><text font-family="Monaco,Monaco_MSFontService,sans-serif" font-weight="400" font-size="73" transform="matrix(1 0 0 1 1705.43 2415)">equation</text></g><g clip-path="url(#clip41)"><text font-family="Monaco,Monaco_MSFontService,sans-serif" font-weight="400" font-size="73" transform="matrix(1 0 0 1 1705.43 2503)">\</text></g><text font-family="Monaco,Monaco_MSFontService,sans-serif" font-weight="400" font-size="73" transform="matrix(1 0 0 1 1749.54 2503)">end{equation}</text><g clip-path="url(#clip42)"><text fill="#E111CD" font-family="Times New Roman,Times New Roman_MSFontService,sans-serif" font-weight="400" font-size="83" transform="matrix(1 0 0 1 -345.058 2665)">name</text></g><path d="M-345.058 2671.54-166.058 2671.54-166.058 2675.54-345.058 2675.54Z" fill="#E111CD" fill-rule="evenodd"/><g clip-path="url(#clip43)"><text font-family="Monaco,Monaco_MSFontService,sans-serif" font-weight="400" font-size="73" transform="matrix(1 0 0 1 596.883 2661)">[name](</text></g><text font-family="Monaco,Monaco_MSFontService,sans-serif" font-weight="400" font-size="73" transform="matrix(1 0 0 1 905.686 2661)">url<tspan font-size="73" x="132.344" y="0">)</tspan></text><g clip-path="url(#clip44)"><text font-family="Monaco,Monaco_MSFontService,sans-serif" font-weight="400" font-size="73" transform="matrix(1 0 0 1 1705.43 2661)">\</text></g><text font-family="Monaco,Monaco_MSFontService,sans-serif" font-weight="400" font-size="73" transform="matrix(1 0 0 1 1749.54 2661)">href<tspan font-size="73" x="176.458" y="0">{</tspan><tspan font-size="73" x="220.573" y="0">url</tspan>}{name}</text><g clip-path="url(#clip45)"><text fill="#00B050" font-family="Times New Roman,Times New Roman_MSFontService,sans-serif" font-weight="400" font-size="83" transform="matrix(1 0 0 1 -345.058 2828)">[1]</text></g><g clip-path="url(#clip46)"><text fill="#FF0000" font-family="Monaco,Monaco_MSFontService,sans-serif" font-weight="400" font-size="73" transform="matrix(1 0 0 1 596.883 2825)">[@citename]</text></g><g clip-path="url(#clip47)"><text font-family="Monaco,Monaco_MSFontService,sans-serif" font-weight="400" font-size="73" transform="matrix(1 0 0 1 1705.43 2825)">\</text></g><text font-family="Monaco,Monaco_MSFontService,sans-serif" font-weight="400" font-size="73" transform="matrix(1 0 0 1 1749.54 2825)">cite{<tspan font-size="73" x="220.573" y="0">citename</tspan><tspan font-size="73" x="573.49" y="0">}</tspan></text><g clip-path="url(#clip48)"><text fill="#0070C0" font-family="Times New Roman,Times New Roman_MSFontService,sans-serif" font-weight="400" font-size="83" transform="matrix(1 0 0 1 -345.058 2992)">1</text></g><g clip-path="url(#clip49)"><text fill="#FF0000" font-family="Monaco,Monaco_MSFontService,sans-serif" font-weight="400" font-size="73" transform="matrix(1 0 0 1 596.883 2989)">[#label]</text></g><g clip-path="url(#clip50)"><text font-family="Monaco,Monaco_MSFontService,sans-serif" font-weight="400" font-size="73" transform="matrix(1 0 0 1 1705.43 2989)">\</text></g><text font-family="Monaco,Monaco_MSFontService,sans-serif" font-weight="400" font-size="73" transform="matrix(1 0 0 1 1749.54 2989)">ref{label}</text><g clip-path="url(#clip51)"><text font-family="Monaco,Monaco_MSFontService,sans-serif" font-weight="400" font-size="73" transform="matrix(1 0 0 1 596.883 3367)">![label](</text></g><text font-family="Monaco,Monaco_MSFontService,sans-serif" font-weight="400" font-size="73" transform="matrix(1 0 0 1 993.915 3367)">url<tspan font-size="73" x="176.458" y="0">“caption”)</tspan></text><g clip-path="url(#clip52)"><text font-family="Monaco,Monaco_MSFontService,sans-serif" font-weight="400" font-size="73" transform="matrix(1 0 0 1 1705.43 3147)">\</text></g><text font-family="Monaco,Monaco_MSFontService,sans-serif" font-weight="400" font-size="73" transform="matrix(1 0 0 1 1749.54 3147)">begin{figure}[<tspan fill="#00B050" font-size="73" x="617.604" y="0">ht</tspan><tspan font-size="73" x="705.833" y="0">]</tspan><tspan font-size="73" x="132.344" y="88">\</tspan><tspan font-size="73" x="176.458" y="88">centering</tspan><tspan font-size="73" x="132.344" y="176">\</tspan><tspan font-size="73" x="176.458" y="176">includegraphics</tspan>[width=<tspan font-size="73" x="1146.98" y="176">\</tspan><tspan font-size="73" x="1191.09" y="176">textwidth</tspan><tspan font-size="73" x="1588.13" y="176">]{</tspan><tspan font-size="73" x="1676.35" y="176">url</tspan>}<tspan font-size="73" x="132.344" y="264">\</tspan><tspan font-size="73" x="176.458" y="264">caption{caption}</tspan><tspan font-size="73" x="132.344" y="352">\</tspan><tspan font-size="73" x="176.458" y="352">label{label}</tspan></text><g clip-path="url(#clip53)"><text font-family="Monaco,Monaco_MSFontService,sans-serif" font-weight="400" font-size="73" transform="matrix(1 0 0 1 1705.43 3587)">\</text></g><text font-family="Monaco,Monaco_MSFontService,sans-serif" font-weight="400" font-size="73" transform="matrix(1 0 0 1 1749.54 3587)">end{figure}</text><g clip-path="url(#clip54)"><text font-family="Times New Roman,Times New Roman_MSFontService,sans-serif" font-weight="400" font-size="83" transform="matrix(1 0 0 1 -345.058 3826)">1.</text></g><text font-family="Times New Roman,Times New Roman_MSFontService,sans-serif" font-weight="400" font-size="83" transform="matrix(1 0 0 1 -221.308 3826)">item1</text><g clip-path="url(#clip55)"><text font-family="Times New Roman,Times New Roman_MSFontService,sans-serif" font-weight="400" font-size="83" transform="matrix(1 0 0 1 -345.058 3925)">2.</text></g><text font-family="Times New Roman,Times New Roman_MSFontService,sans-serif" font-weight="400" font-size="83" transform="matrix(1 0 0 1 -221.308 3925)">item2</text><g clip-path="url(#clip56)"><text font-family="Monaco,Monaco_MSFontService,sans-serif" font-weight="400" font-size="73" transform="matrix(1 0 0 1 596.883 3828)">1. item1</text></g><g clip-path="url(#clip57)"><text font-family="Monaco,Monaco_MSFontService,sans-serif" font-weight="400" font-size="73" transform="matrix(1 0 0 1 596.883 3916)">2. item2</text></g><g clip-path="url(#clip58)"><text font-family="Monaco,Monaco_MSFontService,sans-serif" font-weight="400" font-size="73" transform="matrix(1 0 0 1 1705.43 3740)">\</text></g><text font-family="Monaco,Monaco_MSFontService,sans-serif" font-weight="400" font-size="73" transform="matrix(1 0 0 1 1749.54 3740)">begin{enumerate}<tspan font-size="73" x="132.344" y="88">\</tspan><tspan font-size="73" x="176.458" y="88">item item1</tspan><tspan font-size="73" x="132.344" y="176">\</tspan><tspan font-size="73" x="176.458" y="176">item item2</tspan></text><g clip-path="url(#clip59)"><text font-family="Monaco,Monaco_MSFontService,sans-serif" font-weight="400" font-size="73" transform="matrix(1 0 0 1 1705.43 4004)">\</text></g><text font-family="Monaco,Monaco_MSFontService,sans-serif" font-weight="400" font-size="73" transform="matrix(1 0 0 1 1749.54 4004)">end{enumerate}</text><g clip-path="url(#clip60)"><text font-family="Arial,Arial_MSFontService,sans-serif" font-weight="400" font-size="83" transform="matrix(1 0 0 1 -345.058 4243)">•</text></g><text font-family="Times New Roman,Times New Roman_MSFontService,sans-serif" font-weight="400" font-size="83" transform="matrix(1 0 0 1 -241.933 4243)">item1</text><g clip-path="url(#clip61)"><text font-family="Arial,Arial_MSFontService,sans-serif" font-weight="400" font-size="83" transform="matrix(1 0 0 1 -345.058 4342)">•</text></g><text font-family="Times New Roman,Times New Roman_MSFontService,sans-serif" font-weight="400" font-size="83" transform="matrix(1 0 0 1 -241.933 4342)">item2</text><g clip-path="url(#clip62)"><text font-family="Monaco,Monaco_MSFontService,sans-serif" font-weight="400" font-size="73" transform="matrix(1 0 0 1 596.883 4245)">-</text></g><text font-family="Monaco,Monaco_MSFontService,sans-serif" font-weight="400" font-size="73" transform="matrix(1 0 0 1 685.113 4245)">item1</text><g clip-path="url(#clip63)"><text font-family="Monaco,Monaco_MSFontService,sans-serif" font-weight="400" font-size="73" transform="matrix(1 0 0 1 596.883 4333)">-</text></g><text font-family="Monaco,Monaco_MSFontService,sans-serif" font-weight="400" font-size="73" transform="matrix(1 0 0 1 685.113 4333)">item2</text><g clip-path="url(#clip64)"><text font-family="Monaco,Monaco_MSFontService,sans-serif" font-weight="400" font-size="73" transform="matrix(1 0 0 1 1705.43 4157)">\</text></g><text font-family="Monaco,Monaco_MSFontService,sans-serif" font-weight="400" font-size="73" transform="matrix(1 0 0 1 1749.54 4157)">begin{itemize}<tspan font-size="73" x="132.344" y="88">\</tspan><tspan font-size="73" x="176.458" y="88">item item1</tspan><tspan font-size="73" x="132.344" y="176">\</tspan><tspan font-size="73" x="176.458" y="176">item item2</tspan></text><g clip-path="url(#clip65)"><text font-family="Monaco,Monaco_MSFontService,sans-serif" font-weight="400" font-size="73" transform="matrix(1 0 0 1 1705.43 4421)">\</text></g><text font-family="Monaco,Monaco_MSFontService,sans-serif" font-weight="400" font-size="73" transform="matrix(1 0 0 1 1749.54 4421)">end{itemize}</text><g clip-path="url(#clip66)"><text font-family="Monaco,Monaco_MSFontService,sans-serif" font-weight="400" font-size="73" transform="matrix(1 0 0 1 596.883 4838)">| caption1 | caption2 |</text></g><g clip-path="url(#clip67)"><text font-family="Monaco,Monaco_MSFontService,sans-serif" font-weight="400" font-size="73" transform="matrix(1 0 0 1 596.883 4926)">| </text></g><text font-family="Monaco,Monaco_MSFontService,sans-serif" font-weight="400" font-size="73" transform="matrix(1 0 0 1 685.113 4926)">-------: | <tspan font-size="73" x="485.26" y="0">:</tspan><tspan font-size="73" x="529.375" y="0">------</tspan><tspan font-size="73" x="794.063" y="0">: |</tspan></text><g clip-path="url(#clip68)"><text font-family="Monaco,Monaco_MSFontService,sans-serif" font-weight="400" font-size="73" transform="matrix(1 0 0 1 596.883 5014)">| content1 | content2 |</text></g><g clip-path="url(#clip69)"><text font-family="Monaco,Monaco_MSFontService,sans-serif" font-weight="400" font-size="73" transform="matrix(1 0 0 1 1705.43 4574)">\</text></g><text font-family="Monaco,Monaco_MSFontService,sans-serif" font-weight="400" font-size="73" transform="matrix(1 0 0 1 1749.54 4574)">begin{table}[<tspan fill="#00B050" font-size="73" x="573.49" y="0">ht</tspan><tspan font-size="73" x="661.719" y="0">]</tspan><tspan font-size="73" x="132.344" y="88">\</tspan><tspan font-size="73" x="176.458" y="88">centering</tspan><tspan font-size="73" x="132.344" y="176">\</tspan><tspan font-size="73" x="176.458" y="176">begin{tabular}{</tspan>rc<tspan font-size="73" x="926.406" y="176">}</tspan><tspan font-size="73" x="308.802" y="264">\</tspan><tspan font-size="73" x="352.917" y="264">toprule</tspan><tspan font-size="73" x="308.802" y="352">\</tspan><tspan font-size="73" x="352.917" y="352">textbf</tspan><tspan font-size="73" x="617.604" y="352">{caption1} &amp; </tspan><tspan font-size="73" x="1191.09" y="352">\</tspan><tspan font-size="73" x="1235.21" y="352">textbf</tspan>{caption2} <tspan font-size="73" x="1985.16" y="352">\</tspan><tspan font-size="73" x="2029.27" y="352">\</tspan><tspan font-size="73" x="308.802" y="440">\</tspan><tspan font-size="73" x="352.917" y="440">midrule</tspan><tspan font-size="73" x="308.802" y="528">content1 &amp; content2 </tspan><tspan font-size="73" x="1191.09" y="528">\</tspan><tspan font-size="73" x="1235.21" y="528">\</tspan><tspan font-size="73" x="132.344" y="616">\</tspan><tspan font-size="73" x="176.458" y="616">end{tabular}</tspan></text><g clip-path="url(#clip70)"><text font-family="Monaco,Monaco_MSFontService,sans-serif" font-weight="400" font-size="73" transform="matrix(1 0 0 1 1705.43 5278)">\</text></g><text font-family="Monaco,Monaco_MSFontService,sans-serif" font-weight="400" font-size="73" transform="matrix(1 0 0 1 1749.54 5278)">end{table}</text><path d="M-315.286 4886.59 500.874 4886.59" stroke="#000000" stroke-width="4.58333" stroke-linejoin="round" stroke-miterlimit="10" fill="none" fill-rule="evenodd"/><path d="M-315.286 4752.75 500.874 4752.75" stroke="#000000" stroke-width="4.58333" stroke-linejoin="round" stroke-miterlimit="10" fill="none" fill-rule="evenodd"/><path d="M-315.286 5020.42 500.874 5020.42" stroke="#000000" stroke-width="4.58333" stroke-linejoin="round" stroke-miterlimit="10" fill="none" fill-rule="evenodd"/><g clip-path="url(#clip71)"><text font-family="Times New Roman,Times New Roman_MSFontService,sans-serif" font-weight="700" font-size="83" transform="matrix(1 0 0 1 -242.754 4849)">caption1</text></g><text font-family="Times New Roman,Times New Roman_MSFontService,sans-serif" font-weight="700" font-size="83" transform="matrix(1 0 0 1 145.584 4849)">caption2</text><g clip-path="url(#clip72)"><text font-family="Times New Roman,Times New Roman_MSFontService,sans-serif" font-weight="400" font-size="83" transform="matrix(1 0 0 1 -224.421 4983)">content1</text></g><text font-family="Times New Roman,Times New Roman_MSFontService,sans-serif" font-weight="400" font-size="83" transform="matrix(1 0 0 1 154.751 4983)">content2</text></g></svg>